<mxfile host="app.diagrams.net" modified="2024-04-19T09:52:10.484Z" agent="Mozilla/5.0 (Windows NT 10.0; Win64; x64) AppleWebKit/537.36 (KHTML, like Gecko) Chrome/123.0.0.0 Safari/537.36" etag="7N2LBAQhQV4ok6oEdsDM" version="24.2.5" type="device">
  <diagram name="Pagina-1" id="k3K6BZ3L2mx6yBxklab1">
    <mxGraphModel dx="723" dy="261" grid="1" gridSize="10" guides="1" tooltips="1" connect="1" arrows="1" fold="1" page="1" pageScale="1" pageWidth="1500" pageHeight="500" math="1" shadow="0">
      <root>
        <mxCell id="0" />
        <mxCell id="1" parent="0" />
        <mxCell id="dX8lTEdt8kgIvqNtZWJJ-2" style="rounded=0;orthogonalLoop=1;jettySize=auto;html=1;exitX=1;exitY=0.5;exitDx=0;exitDy=0;entryX=0.036;entryY=0.306;entryDx=0;entryDy=0;endArrow=none;endFill=0;entryPerimeter=0;" edge="1" parent="1" source="dX8lTEdt8kgIvqNtZWJJ-3" target="dX8lTEdt8kgIvqNtZWJJ-5">
          <mxGeometry relative="1" as="geometry" />
        </mxCell>
        <mxCell id="dX8lTEdt8kgIvqNtZWJJ-3" value="" style="ellipse;whiteSpace=wrap;html=1;aspect=fixed;strokeWidth=2;" vertex="1" parent="1">
          <mxGeometry x="584" y="162" width="20" height="20" as="geometry" />
        </mxCell>
        <mxCell id="dX8lTEdt8kgIvqNtZWJJ-4" value="" style="ellipse;whiteSpace=wrap;html=1;aspect=fixed;strokeWidth=2;" vertex="1" parent="1">
          <mxGeometry x="594" y="202" width="20" height="20" as="geometry" />
        </mxCell>
        <mxCell id="dX8lTEdt8kgIvqNtZWJJ-5" value="" style="ellipse;whiteSpace=wrap;html=1;aspect=fixed;strokeWidth=2;" vertex="1" parent="1">
          <mxGeometry x="624" y="172" width="20" height="20" as="geometry" />
        </mxCell>
        <mxCell id="dX8lTEdt8kgIvqNtZWJJ-6" value="" style="ellipse;whiteSpace=wrap;html=1;aspect=fixed;strokeWidth=2;" vertex="1" parent="1">
          <mxGeometry x="638" y="215" width="20" height="20" as="geometry" />
        </mxCell>
        <mxCell id="dX8lTEdt8kgIvqNtZWJJ-7" style="rounded=0;orthogonalLoop=1;jettySize=auto;html=1;exitX=0.519;exitY=1.018;exitDx=0;exitDy=0;entryX=0.358;entryY=0.004;entryDx=0;entryDy=0;endArrow=none;endFill=0;entryPerimeter=0;exitPerimeter=0;" edge="1" parent="1" source="dX8lTEdt8kgIvqNtZWJJ-3" target="dX8lTEdt8kgIvqNtZWJJ-4">
          <mxGeometry relative="1" as="geometry">
            <mxPoint x="614" y="182" as="sourcePoint" />
            <mxPoint x="635" y="188" as="targetPoint" />
          </mxGeometry>
        </mxCell>
        <mxCell id="dX8lTEdt8kgIvqNtZWJJ-8" style="rounded=0;orthogonalLoop=1;jettySize=auto;html=1;exitX=0.947;exitY=0.251;exitDx=0;exitDy=0;entryX=0.225;entryY=0.946;entryDx=0;entryDy=0;endArrow=none;endFill=0;entryPerimeter=0;exitPerimeter=0;" edge="1" parent="1" source="dX8lTEdt8kgIvqNtZWJJ-4" target="dX8lTEdt8kgIvqNtZWJJ-5">
          <mxGeometry relative="1" as="geometry">
            <mxPoint x="624" y="192" as="sourcePoint" />
            <mxPoint x="645" y="198" as="targetPoint" />
          </mxGeometry>
        </mxCell>
        <mxCell id="dX8lTEdt8kgIvqNtZWJJ-9" style="rounded=0;orthogonalLoop=1;jettySize=auto;html=1;exitX=0.691;exitY=0.985;exitDx=0;exitDy=0;entryX=0.378;entryY=0.022;entryDx=0;entryDy=0;endArrow=none;endFill=0;entryPerimeter=0;exitPerimeter=0;" edge="1" parent="1" source="dX8lTEdt8kgIvqNtZWJJ-5" target="dX8lTEdt8kgIvqNtZWJJ-6">
          <mxGeometry relative="1" as="geometry">
            <mxPoint x="634" y="166" as="sourcePoint" />
            <mxPoint x="655" y="172" as="targetPoint" />
          </mxGeometry>
        </mxCell>
        <mxCell id="dX8lTEdt8kgIvqNtZWJJ-10" value="" style="rounded=1;whiteSpace=wrap;html=1;rotation=90;fillColor=#f5f5f5;fontColor=#333333;strokeColor=default;strokeWidth=2;" vertex="1" parent="1">
          <mxGeometry x="554" y="162" width="40" height="10" as="geometry" />
        </mxCell>
        <mxCell id="dX8lTEdt8kgIvqNtZWJJ-11" value="" style="rounded=1;whiteSpace=wrap;html=1;rotation=90;fillColor=#f5f5f5;fontColor=#333333;strokeColor=default;strokeWidth=2;" vertex="1" parent="1">
          <mxGeometry x="564" y="220" width="40" height="10" as="geometry" />
        </mxCell>
        <mxCell id="dX8lTEdt8kgIvqNtZWJJ-12" value="" style="rounded=1;whiteSpace=wrap;html=1;rotation=90;fillColor=#f5f5f5;fontColor=#333333;strokeColor=default;strokeWidth=2;" vertex="1" parent="1">
          <mxGeometry x="635" y="162" width="40" height="10" as="geometry" />
        </mxCell>
        <mxCell id="dX8lTEdt8kgIvqNtZWJJ-13" value="" style="rounded=1;whiteSpace=wrap;html=1;rotation=90;fillColor=#f5f5f5;fontColor=#333333;strokeColor=default;strokeWidth=2;" vertex="1" parent="1">
          <mxGeometry x="648" y="230" width="40" height="10" as="geometry" />
        </mxCell>
        <mxCell id="dX8lTEdt8kgIvqNtZWJJ-14" value="" style="rounded=1;whiteSpace=wrap;html=1;rotation=90;fillColor=#f5f5f5;fontColor=#333333;strokeColor=default;strokeWidth=2;" vertex="1" parent="1">
          <mxGeometry x="720" y="158" width="40" height="10" as="geometry" />
        </mxCell>
        <mxCell id="dX8lTEdt8kgIvqNtZWJJ-15" value="" style="rounded=1;whiteSpace=wrap;html=1;rotation=90;fillColor=#f5f5f5;fontColor=#333333;strokeColor=default;strokeWidth=2;" vertex="1" parent="1">
          <mxGeometry x="730" y="158" width="40" height="10" as="geometry" />
        </mxCell>
        <mxCell id="dX8lTEdt8kgIvqNtZWJJ-16" value="" style="rounded=1;whiteSpace=wrap;html=1;rotation=90;fillColor=#f5f5f5;fontColor=#333333;strokeColor=default;strokeWidth=2;" vertex="1" parent="1">
          <mxGeometry x="740" y="158" width="40" height="10" as="geometry" />
        </mxCell>
        <mxCell id="dX8lTEdt8kgIvqNtZWJJ-44" style="edgeStyle=orthogonalEdgeStyle;rounded=0;orthogonalLoop=1;jettySize=auto;html=1;exitX=0.5;exitY=0;exitDx=0;exitDy=0;entryX=0;entryY=0.5;entryDx=0;entryDy=0;" edge="1" parent="1" source="dX8lTEdt8kgIvqNtZWJJ-17" target="dX8lTEdt8kgIvqNtZWJJ-36">
          <mxGeometry relative="1" as="geometry" />
        </mxCell>
        <mxCell id="dX8lTEdt8kgIvqNtZWJJ-17" value="" style="rounded=1;whiteSpace=wrap;html=1;rotation=90;fillColor=#f5f5f5;fontColor=#333333;strokeColor=default;strokeWidth=2;" vertex="1" parent="1">
          <mxGeometry x="750" y="158" width="40" height="10" as="geometry" />
        </mxCell>
        <mxCell id="dX8lTEdt8kgIvqNtZWJJ-27" style="rounded=0;orthogonalLoop=1;jettySize=auto;html=1;exitX=1;exitY=0.5;exitDx=0;exitDy=0;entryX=0.036;entryY=0.306;entryDx=0;entryDy=0;endArrow=none;endFill=0;entryPerimeter=0;" edge="1" parent="1" source="dX8lTEdt8kgIvqNtZWJJ-28" target="dX8lTEdt8kgIvqNtZWJJ-30">
          <mxGeometry relative="1" as="geometry" />
        </mxCell>
        <mxCell id="dX8lTEdt8kgIvqNtZWJJ-28" value="" style="ellipse;whiteSpace=wrap;html=1;aspect=fixed;strokeWidth=2;" vertex="1" parent="1">
          <mxGeometry x="737" y="218" width="10" height="10" as="geometry" />
        </mxCell>
        <mxCell id="dX8lTEdt8kgIvqNtZWJJ-29" value="" style="ellipse;whiteSpace=wrap;html=1;aspect=fixed;strokeWidth=2;" vertex="1" parent="1">
          <mxGeometry x="743" y="238" width="10" height="10" as="geometry" />
        </mxCell>
        <mxCell id="dX8lTEdt8kgIvqNtZWJJ-30" value="" style="ellipse;whiteSpace=wrap;html=1;aspect=fixed;strokeWidth=2;" vertex="1" parent="1">
          <mxGeometry x="757" y="220" width="10" height="10" as="geometry" />
        </mxCell>
        <mxCell id="dX8lTEdt8kgIvqNtZWJJ-31" value="" style="ellipse;whiteSpace=wrap;html=1;aspect=fixed;strokeWidth=2;" vertex="1" parent="1">
          <mxGeometry x="763" y="243" width="10" height="10" as="geometry" />
        </mxCell>
        <mxCell id="dX8lTEdt8kgIvqNtZWJJ-32" style="rounded=0;orthogonalLoop=1;jettySize=auto;html=1;exitX=0.519;exitY=1.018;exitDx=0;exitDy=0;entryX=0.358;entryY=0.004;entryDx=0;entryDy=0;endArrow=none;endFill=0;entryPerimeter=0;exitPerimeter=0;" edge="1" parent="1" source="dX8lTEdt8kgIvqNtZWJJ-28" target="dX8lTEdt8kgIvqNtZWJJ-29">
          <mxGeometry relative="1" as="geometry">
            <mxPoint x="756" y="232" as="sourcePoint" />
            <mxPoint x="777" y="238" as="targetPoint" />
          </mxGeometry>
        </mxCell>
        <mxCell id="dX8lTEdt8kgIvqNtZWJJ-33" style="rounded=0;orthogonalLoop=1;jettySize=auto;html=1;exitX=0.947;exitY=0.251;exitDx=0;exitDy=0;entryX=0.225;entryY=0.946;entryDx=0;entryDy=0;endArrow=none;endFill=0;entryPerimeter=0;exitPerimeter=0;" edge="1" parent="1" source="dX8lTEdt8kgIvqNtZWJJ-29" target="dX8lTEdt8kgIvqNtZWJJ-30">
          <mxGeometry relative="1" as="geometry">
            <mxPoint x="766" y="242" as="sourcePoint" />
            <mxPoint x="787" y="248" as="targetPoint" />
          </mxGeometry>
        </mxCell>
        <mxCell id="dX8lTEdt8kgIvqNtZWJJ-34" style="rounded=0;orthogonalLoop=1;jettySize=auto;html=1;exitX=0.691;exitY=0.985;exitDx=0;exitDy=0;entryX=0.378;entryY=0.022;entryDx=0;entryDy=0;endArrow=none;endFill=0;entryPerimeter=0;exitPerimeter=0;" edge="1" parent="1" source="dX8lTEdt8kgIvqNtZWJJ-30" target="dX8lTEdt8kgIvqNtZWJJ-31">
          <mxGeometry relative="1" as="geometry">
            <mxPoint x="776" y="216" as="sourcePoint" />
            <mxPoint x="797" y="222" as="targetPoint" />
          </mxGeometry>
        </mxCell>
        <mxCell id="dX8lTEdt8kgIvqNtZWJJ-50" value="" style="edgeStyle=orthogonalEdgeStyle;rounded=0;orthogonalLoop=1;jettySize=auto;html=1;" edge="1" parent="1" source="dX8lTEdt8kgIvqNtZWJJ-35" target="dX8lTEdt8kgIvqNtZWJJ-36">
          <mxGeometry relative="1" as="geometry" />
        </mxCell>
        <mxCell id="dX8lTEdt8kgIvqNtZWJJ-35" value="Positional embeddings" style="rounded=1;whiteSpace=wrap;html=1;fillColor=#f8cecc;strokeColor=default;strokeWidth=2;fontSize=10;" vertex="1" parent="1">
          <mxGeometry x="810" y="218" width="70" height="33" as="geometry" />
        </mxCell>
        <mxCell id="dX8lTEdt8kgIvqNtZWJJ-45" style="edgeStyle=orthogonalEdgeStyle;rounded=0;orthogonalLoop=1;jettySize=auto;html=1;exitX=1;exitY=0.5;exitDx=0;exitDy=0;entryX=0;entryY=0.5;entryDx=0;entryDy=0;" edge="1" parent="1" source="dX8lTEdt8kgIvqNtZWJJ-36" target="dX8lTEdt8kgIvqNtZWJJ-42">
          <mxGeometry relative="1" as="geometry" />
        </mxCell>
        <mxCell id="dX8lTEdt8kgIvqNtZWJJ-36" value="$$+$$" style="ellipse;whiteSpace=wrap;html=1;aspect=fixed;strokeWidth=1;" vertex="1" parent="1">
          <mxGeometry x="835" y="153" width="20" height="20" as="geometry" />
        </mxCell>
        <mxCell id="dX8lTEdt8kgIvqNtZWJJ-43" style="edgeStyle=orthogonalEdgeStyle;rounded=0;orthogonalLoop=1;jettySize=auto;html=1;exitX=1;exitY=0.25;exitDx=0;exitDy=0;entryX=0.5;entryY=1;entryDx=0;entryDy=0;" edge="1" parent="1" source="dX8lTEdt8kgIvqNtZWJJ-37" target="dX8lTEdt8kgIvqNtZWJJ-14">
          <mxGeometry relative="1" as="geometry" />
        </mxCell>
        <mxCell id="dX8lTEdt8kgIvqNtZWJJ-48" style="edgeStyle=orthogonalEdgeStyle;rounded=0;orthogonalLoop=1;jettySize=auto;html=1;exitX=1;exitY=0.75;exitDx=0;exitDy=0;entryX=0;entryY=0.5;entryDx=0;entryDy=0;" edge="1" parent="1" source="dX8lTEdt8kgIvqNtZWJJ-37" target="dX8lTEdt8kgIvqNtZWJJ-46">
          <mxGeometry relative="1" as="geometry" />
        </mxCell>
        <mxCell id="dX8lTEdt8kgIvqNtZWJJ-37" value="" style="rounded=0;whiteSpace=wrap;html=1;fillColor=none;dashed=1;" vertex="1" parent="1">
          <mxGeometry x="552" y="128" width="135" height="142" as="geometry" />
        </mxCell>
        <mxCell id="dX8lTEdt8kgIvqNtZWJJ-42" value="Transformer" style="rounded=1;whiteSpace=wrap;html=1;fillColor=#f8cecc;strokeColor=default;strokeWidth=2;fontSize=10;" vertex="1" parent="1">
          <mxGeometry x="890" y="146.5" width="70" height="33" as="geometry" />
        </mxCell>
        <mxCell id="dX8lTEdt8kgIvqNtZWJJ-49" style="edgeStyle=orthogonalEdgeStyle;rounded=0;orthogonalLoop=1;jettySize=auto;html=1;exitX=1;exitY=0.5;exitDx=0;exitDy=0;entryX=0;entryY=0.5;entryDx=0;entryDy=0;" edge="1" parent="1" source="dX8lTEdt8kgIvqNtZWJJ-46" target="dX8lTEdt8kgIvqNtZWJJ-35">
          <mxGeometry relative="1" as="geometry" />
        </mxCell>
        <mxCell id="dX8lTEdt8kgIvqNtZWJJ-46" value="" style="rounded=0;whiteSpace=wrap;html=1;fillColor=none;dashed=1;strokeColor=none;" vertex="1" parent="1">
          <mxGeometry x="730" y="208" width="50" height="54" as="geometry" />
        </mxCell>
      </root>
    </mxGraphModel>
  </diagram>
</mxfile>
